<?xml version="1.0" standalone="no"?>
<!DOCTYPE svg PUBLIC "-//W3C//DTD SVG 20010904//EN"
 "http://www.w3.org/TR/2001/REC-SVG-20010904/DTD/svg10.dtd">
<svg version="1.0" xmlns="http://www.w3.org/2000/svg"
 width="1737.000000pt" height="572.000000pt" viewBox="0 0 1737.000000 572.000000"
 preserveAspectRatio="xMidYMid meet">

<g transform="translate(0.000000,572.000000) scale(0.100000,-0.100000)"
fill="#000000" stroke="none">
<path d="M10 2855 l0 -2855 8680 0 8680 0 0 2855 0 2855 -8680 0 -8680 0 0
-2855z m6652 1485 c31 -74 229 -554 442 -1067 212 -512 386 -935 386 -940 0
-5 -516 57 -1147 138 -827 105 -1147 149 -1145 158 1 6 112 157 246 334 133
177 389 516 567 752 178 237 382 508 454 602 71 95 132 169 136 165 3 -4 31
-68 61 -142z m4255 -629 c178 -26 289 -137 301 -301 3 -42 0 -88 -8 -115 -17
-61 -77 -127 -141 -155 l-52 -22 51 -17 c136 -46 214 -177 199 -336 -12 -122
-70 -204 -181 -256 -83 -38 -183 -49 -458 -49 l-228 0 0 630 0 630 228 0 c125
0 255 -4 289 -9z m753 -486 l5 -490 341 490 340 490 75 0 74 0 0 -625 0 -625
-75 0 -75 0 -5 490 -5 490 -100 -144 c-55 -79 -208 -299 -341 -490 l-241 -346
-74 0 -74 0 -3 615 c-1 338 0 621 3 628 3 9 25 12 77 10 l73 -3 5 -490z m2055
-135 l0 -625 -75 0 -75 0 -3 558 -2 557 -228 -2 -227 -3 -7 -170 c-26 -627
-47 -752 -145 -856 -50 -53 -99 -74 -200 -85 l-63 -7 0 77 0 76 40 0 c82 0
139 54 164 156 25 96 34 210 46 579 7 193 13 356 16 363 3 10 84 12 381 10
l378 -3 0 -625z m1225 0 l0 -630 -75 0 -75 0 -2 558 -3 557 -227 3 -227 2 -5
-32 c-3 -18 -10 -163 -16 -323 -11 -305 -28 -463 -61 -550 -29 -77 -76 -142
-123 -169 -40 -24 -131 -46 -188 -46 l-28 0 0 75 0 75 41 0 c92 0 147 59 174
186 17 84 32 297 40 579 3 116 8 240 11 278 l6 67 379 0 379 0 0 -630z m458
363 l2 -263 195 0 c207 0 273 -9 347 -46 102 -51 159 -132 178 -249 27 -165
-55 -323 -201 -390 -78 -35 -167 -44 -441 -45 l-238 0 0 630 0 631 78 -3 77
-3 3 -262z m-13068 122 l0 -135 -187 -2 -188 -3 -3 -483 -2 -482 -163 2 -162
3 -3 483 -2 482 -185 0 -185 0 0 135 0 135 540 0 540 0 0 -135z m1065 -471
c110 -333 201 -612 203 -620 3 -12 -25 -14 -179 -12 l-183 3 -35 118 -34 117
-202 0 -202 0 -35 -117 -35 -118 -182 -3 c-99 -1 -181 1 -181 5 0 5 91 284
202 621 l202 612 231 0 230 0 200 -606z m1535 -14 l0 -620 -162 2 -163 3 -3
488 -2 487 -124 0 -125 0 -5 -52 c-3 -29 -10 -147 -16 -263 -17 -336 -56 -475
-161 -569 -64 -57 -140 -82 -278 -92 l-101 -7 0 135 0 135 35 6 c91 15 144 89
170 233 8 44 20 226 27 407 l12 327 448 0 448 0 0 -620z m3080 380 l0 -240
220 0 220 0 0 240 0 240 170 0 170 0 -2 -617 -3 -618 -167 -3 -168 -2 -2 242
-3 243 -217 3 -218 2 -2 -242 -3 -243 -167 -3 -168 -2 0 620 0 620 170 0 170
0 0 -240z m2120 105 l0 -135 -185 0 -185 0 0 -485 0 -485 -165 0 -165 0 0 485
0 485 -185 0 -185 0 0 135 0 135 535 0 535 0 0 -135z m-32 -1632 c62 -38 100
-112 104 -203 l3 -65 -192 -3 c-217 -3 -210 1 -173 -79 44 -98 190 -122 253
-41 22 27 28 30 61 24 45 -9 47 -31 9 -77 -40 -47 -95 -69 -178 -69 -85 0
-136 21 -186 77 -48 53 -64 102 -64 198 0 67 5 89 28 138 47 94 127 141 230
133 42 -3 72 -13 105 -33z m3248 9 c86 -44 128 -125 128 -247 1 -96 -14 -144
-62 -197 -52 -57 -99 -78 -177 -78 -78 0 -125 21 -177 78 -48 53 -63 101 -62
197 0 142 57 228 174 266 40 13 133 3 176 -19z m595 13 c97 -35 149 -127 149
-264 0 -172 -82 -271 -224 -271 -65 0 -105 17 -135 57 l-20 28 -1 -137 0 -138
-45 0 -45 0 0 365 0 365 40 0 40 0 0 -42 0 -42 38 36 c61 60 120 72 203 43z
m625 -13 c86 -44 129 -126 129 -247 0 -96 -16 -145 -63 -197 -52 -57 -99 -78
-177 -78 -78 0 -125 21 -177 78 -48 53 -63 101 -62 197 0 142 57 228 174 266
40 13 133 3 176 -19z m1381 16 c69 -17 136 -86 158 -162 38 -132 -1 -276 -93
-340 -35 -25 -55 -31 -112 -34 -83 -5 -130 9 -180 54 -53 48 -82 121 -83 208
-2 203 130 320 310 274z m-6397 -223 l0 -225 40 0 40 0 0 -120 0 -120 -40 0
-39 0 -3 78 -3 77 -192 3 -192 2 -3 -77 -3 -78 -40 0 -40 0 0 115 c0 113 0
114 25 120 52 12 79 102 95 315 3 44 9 92 11 108 l6 27 169 0 169 0 0 -225z
m1180 185 l0 -40 -85 0 -85 0 0 -225 0 -225 -45 0 -45 0 0 225 0 225 -85 0
-85 0 0 40 0 40 215 0 215 0 0 -40z m540 -225 l0 -265 -40 0 -40 0 0 105 0
105 -69 0 -70 0 -57 -101 c-31 -55 -63 -103 -70 -106 -6 -2 -28 -3 -48 -1
l-36 3 60 105 c33 58 60 108 60 111 0 3 -11 11 -25 17 -62 29 -87 150 -45 220
35 57 84 72 243 72 l137 0 0 -265z m369 67 c46 -108 87 -200 91 -205 3 -4 47
85 96 198 l89 205 58 0 57 0 0 -265 0 -265 -45 0 -45 0 -2 192 -3 191 -81
-189 -82 -189 -38 0 -38 0 -81 188 -80 188 -3 -191 -2 -190 -45 0 -45 0 0 265
0 265 58 0 57 -1 84 -197z m976 98 c32 -55 60 -102 64 -104 3 -2 33 43 66 100
l60 104 48 0 c26 0 47 -2 47 -5 0 -2 -36 -61 -81 -130 -48 -74 -79 -131 -75
-140 3 -8 39 -67 81 -130 41 -64 75 -118 75 -121 0 -2 -21 -4 -48 -4 l-47 0
-59 95 c-33 52 -62 95 -65 95 -4 0 -33 -43 -65 -95 l-58 -95 -50 0 c-50 0 -50
0 -36 23 91 139 149 240 145 250 -3 8 -34 58 -70 113 -99 155 -97 144 -38 144
l49 0 57 -100z m2315 -125 l0 -225 95 0 95 0 0 225 0 225 45 0 45 0 0 -225 0
-225 100 0 100 0 0 225 0 225 40 0 40 0 0 -265 0 -265 -325 0 -325 0 0 265 0
265 45 0 45 0 0 -225z"/>
<path d="M10558 3574 c-5 -4 -8 -97 -8 -206 l0 -198 173 0 c151 0 177 3 217
21 93 42 134 107 128 204 -5 75 -36 123 -101 157 -38 20 -61 22 -222 26 -99 2
-183 1 -187 -4z"/>
<path d="M10552 2818 l3 -213 200 0 c197 0 201 0 255 27 105 52 138 155 85
263 -14 30 -41 66 -59 80 -62 47 -104 55 -302 55 l-184 0 2 -212z"/>
<path d="M15410 2825 l0 -227 198 4 197 3 55 31 c38 22 64 46 85 79 26 42 30
58 30 121 0 64 -3 77 -30 116 -17 23 -51 54 -75 68 -43 24 -53 25 -252 28
l-208 3 0 -226z"/>
<path d="M2970 3368 c0 -4 -94 -322 -116 -390 -5 -17 5 -18 121 -18 98 0 126
3 122 13 -2 6 -30 98 -62 202 -50 167 -65 212 -65 193z"/>
<path d="M9925 1890 c-43 -17 -95 -89 -95 -130 0 -6 54 -10 151 -10 l151 0 -7
28 c-12 49 -29 76 -64 99 -35 24 -97 30 -136 13z"/>
<path d="M13184 1891 c-30 -13 -70 -64 -84 -107 -18 -54 -8 -164 19 -207 31
-51 67 -71 126 -71 93 0 144 59 153 175 6 82 -13 141 -58 184 -23 22 -41 29
-82 32 -29 1 -62 -1 -74 -6z"/>
<path d="M13792 1880 c-52 -32 -75 -94 -70 -195 3 -90 16 -118 72 -159 33 -25
100 -28 140 -6 15 8 40 35 54 59 35 60 38 174 7 236 -40 79 -132 108 -203 65z"/>
<path d="M14391 1878 c-59 -39 -76 -80 -76 -178 0 -71 4 -91 23 -121 32 -53
68 -73 127 -73 94 0 144 58 153 176 9 126 -44 208 -140 216 -43 3 -59 0 -87
-20z"/>
<path d="M15810 1878 c-52 -36 -75 -90 -75 -178 1 -100 27 -153 91 -182 81
-35 158 -5 195 76 28 61 26 170 -4 226 -41 77 -138 104 -207 58z"/>
<path d="M9296 1858 c-3 -18 -10 -78 -16 -133 -7 -55 -20 -124 -29 -152 l-18
-53 119 0 118 0 0 185 0 185 -85 0 -84 0 -5 -32z"/>
<path d="M10985 1865 c-27 -26 -31 -51 -14 -89 16 -34 56 -46 150 -46 l79 0 0
80 0 80 -95 0 c-88 0 -98 -2 -120 -25z"/>
</g>
</svg>
